<?xml version="1.0" encoding="UTF-8" standalone="no"?>
<svg
   xmlns:dc="http://purl.org/dc/elements/1.1/"
   xmlns:cc="http://creativecommons.org/ns#"
   xmlns:rdf="http://www.w3.org/1999/02/22-rdf-syntax-ns#"
   xmlns:svg="http://www.w3.org/2000/svg"
   xmlns="http://www.w3.org/2000/svg"
   version="1.1"
   id="svg2"
   height="227.00203"
   width="226.72917">
  <defs
     id="defs4" />
  <metadata
     id="metadata7">
    <rdf:RDF>
      <cc:Work
         rdf:about="">
        <dc:format>image/svg+xml</dc:format>
        <dc:type
           rdf:resource="http://purl.org/dc/dcmitype/StillImage" />
        <dc:title></dc:title>
      </cc:Work>
    </rdf:RDF>
  </metadata>
  <g
     transform="translate(-65.149669,-397.19282)"
     id="layer1">
    <path
       style="fill:#000;stroke-width:1.06666672"
       d="m 174.89019,621.11409 c -1.09666,-1.80331 -2.28555,-5.1025 -2.64199,-7.33153 -0.55792,-3.48901 -1.11302,-4.14579 -3.99041,-4.72127 -7.3498,-1.46996 -8.9408,-0.95022 -10.93626,3.5726 -2.45472,5.56373 -6.59307,8.8907 -9.27417,7.45582 -2.35489,-1.2603 -3.63631,-7.07376 -2.6813,-12.16439 0.66553,-3.5476 0.52624,-3.73907 -4.26075,-5.85658 l -4.94877,-2.18908 -4.83677,5.37967 c -3.81259,4.2405 -5.42626,5.31124 -7.62055,5.05657 -3.59173,-0.41685 -4.13941,-4.23016 -1.67376,-11.65357 0.98546,-2.96694 1.37885,-5.74591 0.8742,-6.1755 -0.50464,-0.42959 -2.90188,-2.30273 -5.32718,-4.16254 -4.02949,-3.08995 -4.53525,-3.22968 -5.86667,-1.62076 -0.80136,0.9684 -3.35247,2.61045 -5.66912,3.64902 -4.79484,2.14956 -8.054566,1.21614 -8.054566,-2.30642 0,-2.43888 3.678676,-10.09734 5.344786,-11.12706 0.67104,-0.41473 -0.24617,-2.44311 -2.32384,-5.13904 -1.887848,-2.44963 -3.508392,-4.58241 -3.601213,-4.7395 -0.0928,-0.15708 -2.280224,0.67237 -4.860907,1.84325 -5.532042,2.50992 -10.85856,2.78506 -12.628565,0.65233 -1.777707,-2.142 0.931179,-7.06111 6.236075,-11.32425 l 4.161546,-3.34431 -2.429877,-5.50403 -2.429877,-5.50403 -6.267392,0.33488 c -8.053483,0.4303 -10.986394,-1.36987 -9.43216,-5.78929 0.734602,-2.08885 2.731456,-3.81484 6.598784,-5.70374 5.157589,-2.51909 5.507082,-2.93233 4.99713,-5.90852 -1.562549,-9.11939 -1.23425,-8.6682 -7.29392,-10.0243 -6.610756,-1.47942 -10.180751,-4.58176 -8.482681,-7.37147 0.60401,-0.99232 4.081604,-2.75145 7.727972,-3.90916 4.868885,-1.54585 6.742272,-2.67909 7.053355,-4.26666 1.826154,-9.31963 1.954549,-8.89508 -3.530358,-11.67449 -6.15568,-3.11932 -7.915844,-5.06115 -7.454069,-8.2234 0.438496,-3.00293 4.971925,-4.42839 11.563648,-3.63596 l 4.815104,0.57884 1.847147,-5.20076 1.847146,-5.20077 -4.87744,-4.87744 c -8.224213,-8.22421 -4.773781,-12.72946 6.743574,-8.80511 2.707498,0.92254 5.036341,1.67735 5.1752,1.67735 0.138858,0 2.029248,-2.42045 4.200858,-5.37878 3.56403,-4.85517 3.79305,-5.55605 2.35281,-7.2 -0.87757,-1.00167 -2.37347,-3.35738 -3.324207,-5.23492 -4.613269,-9.11028 0.745357,-11.69626 10.508127,-5.07107 l 4.0808,2.76931 4.37456,-3.20149 c 3.83989,-2.81021 4.32672,-3.63425 3.98319,-6.74227 -0.21524,-1.94743 -0.45524,-5.70078 -0.53333,-8.34078 -0.12635,-4.2718 0.13305,-4.83895 2.35732,-5.15387 1.82601,-0.25854 3.73663,0.93749 7.09245,4.43982 l 4.59315,4.79369 4.90992,-1.7656 4.90992,-1.76559 -0.57785,-4.80757 c -0.79495,-6.61387 0.6334,-11.11761 3.66621,-11.55993 3.18161,-0.46401 5.94808,2.17296 8.31399,7.92485 1.85075,4.49948 2.07256,4.65993 5.65958,4.09381 8.25843,-1.30335 8.21537,-1.27362 9.53981,-6.58738 1.52079,-6.10159 3.80239,-9.8789 5.96712,-9.8789 2.11671,0 5.53278,5.77199 6.37843,10.77732 0.71229,4.21601 0.5169,4.10071 9.58131,5.65384 2.97619,0.50995 3.38943,0.16046 5.90852,-4.99713 1.84971,-3.7871 3.62707,-5.86847 5.60548,-6.56424 4.33581,-1.52482 5.55317,0.4252 5.54958,8.88946 l -0.003,7.24714 4.70211,1.69087 4.70212,1.69087 4.66296,-4.79784 c 3.27375,-3.36843 5.36943,-4.69739 7.03429,-4.46072 2.05469,0.29208 2.36746,0.97806 2.34225,5.1371 -0.016,2.64 -0.40039,6.29744 -0.85422,8.12766 -0.76988,3.10486 -0.48229,3.57376 4.29576,7.00369 l 5.12101,3.67603 4.8,-3.04377 c 5.75461,-3.64909 9.96481,-3.62059 10.48746,0.071 0.43856,3.09765 -1.50158,7.95853 -4.12361,10.33145 -1.90721,1.72599 -1.8453,1.96007 1.81524,6.86322 l 3.78979,5.07627 5.22701,-1.9861 c 6.28157,-2.38682 9.83222,-2.52111 11.56163,-0.43729 1.90422,2.29444 0.44169,5.46097 -4.87557,10.55612 l -4.74537,4.54716 2.25008,5.08668 c 2.24048,5.06498 2.26781,5.08367 6.40853,4.3841 5.39495,-0.91147 10.35426,0.21588 11.65687,2.64982 1.42099,2.65514 -1.86999,6.66689 -7.83981,9.55682 l -4.64611,2.24915 1.01103,5.57732 c 0.55606,3.06755 1.08868,5.62214 1.18359,5.6769 0.0949,0.0547 3.01419,1.01476 6.48726,2.13333 3.47309,1.11857 6.81291,2.84568 7.42183,3.838 1.715,2.79481 -1.86023,5.89143 -8.52367,7.38264 -3.1604,0.70727 -5.76708,1.80956 -5.79263,2.44954 -0.0255,0.63998 -0.43953,3.19503 -0.91997,5.6779 l -0.8735,4.5143 5.67318,3.20175 c 7.29534,4.11724 8.76469,6.63836 5.67163,9.73143 -1.94315,1.94314 -3.20435,2.21027 -8.59454,1.82038 l -6.31721,-0.45695 -2.12801,4.81073 c -2.02634,4.58089 -2.03733,4.86067 -0.22991,5.85622 4.25397,2.34312 8.98533,8.09803 8.64273,10.51245 -0.27482,1.93688 -1.11976,2.49368 -4.1723,2.7495 -2.10523,0.17643 -5.77707,-0.35083 -8.15965,-1.17169 l -4.33197,-1.4925 -3.92641,5.25928 c -3.50448,4.69412 -3.75905,5.45046 -2.36898,7.03837 2.58575,2.95375 5.0147,8.43974 5.0147,11.32612 0,2.37385 -0.45434,2.71964 -3.57329,2.71964 -2.28665,0 -5.18233,-1.16558 -8.04192,-3.23706 l -4.46864,-3.23707 -4.75807,3.8989 c -2.61695,2.14438 -4.75808,4.02244 -4.75808,4.17346 0,0.15102 0.74616,2.06038 1.65813,4.24305 0.91198,2.18266 1.51198,5.72129 1.33333,7.8636 -0.49141,5.89321 -3.76287,5.78786 -10.30533,-0.33185 l -5.23951,-4.90094 -5.18997,2.04585 -5.18999,2.04584 0.35791,6.28726 c 0.28523,5.01031 -0.0659,6.81065 -1.7289,8.86437 -2.0354,2.5136 -2.1569,2.53122 -4.92911,0.7148 -1.56327,-1.02429 -3.8809,-4.00011 -5.15031,-6.61294 -2.44083,-5.02396 -3.17149,-5.30796 -10.52607,-4.09143 -3.60509,0.59633 -3.92086,0.97246 -5.09805,6.07229 -2.13857,9.2648 -6.1184,11.74347 -9.6174,5.9898 z m -3.30807,-63.65123 v -29.59662 l -21.06666,21.07249 -21.06667,21.07249 3.2,2.62496 c 7.76931,6.37317 27.08523,14.06436 36,14.33444 l 2.93333,0.0889 v -29.59663 z m 27.08322,27.49316 c 8.85041,-2.26355 20.57761,-7.92197 26.11119,-12.59874 l 3.42869,-2.89779 -21.37822,-21.32333 -21.37821,-21.32334 v 30.12334 30.12333 h 2.49604 c 1.37282,0 6.19705,-0.94656 10.72051,-2.10347 z m -57.48322,-45.89653 21.31334,-21.33334 h -30.24445 -30.24445 l 0.75801,5.06667 c 1.4423,9.64065 5.88338,21.32499 11.20216,29.47256 2.91811,4.4701 5.43985,8.12744 5.60386,8.12744 0.16401,0 9.8892,-9.6 21.61153,-21.33333 z m 100.84591,15.39994 c 6.36739,-9.25468 12.68544,-26.28357 12.73833,-34.33328 l 0.0158,-2.4 h -29.58973 -29.58975 l 20.77948,20.8 c 11.42872,11.44 21.12105,20.8 21.5385,20.8 0.41746,0 2.26579,-2.19002 4.10741,-4.86672 z m -58.71257,-38.86661 c 2.98535,-2.98535 2.70026,-6.86588 -0.70094,-9.54127 -3.22008,-2.5329 -6.27272,-2.127 -9.16573,1.2188 -2.4169,2.79515 -2.35292,4.2166 0.34408,7.64529 2.65676,3.37752 6.54569,3.65408 9.52259,0.67718 z m -42.11661,-33.04993 -21.29661,-21.3166 -2.34677,2.9166 c -4.53607,5.63749 -11.09206,19.31216 -13.18836,27.50866 -3.47715,13.59547 -6.660144,12.20794 28.00501,12.20794 h 30.12334 z m 113.12385,15.78145 c -1.11172,-8.38061 -5.37173,-19.50646 -10.80935,-28.23075 -2.68553,-4.30876 -5.2133,-7.8341 -5.61726,-7.8341 -0.40396,0 -10.08525,9.36 -21.51397,20.8 l -20.77949,20.8 h 29.72717 29.72716 z m -29.10911,-48.60326 c -7.69076,-6.23884 -23.67589,-12.90087 -35.23147,-14.68321 l -4.53333,-0.69924 v 30.2171 30.21709 l 21.3648,-21.32334 21.3648,-21.32333 z M 171.13066,434.7858 c -0.26748,-0.26749 -4.23533,0.26641 -8.81743,1.18642 -8.29366,1.66524 -24.69401,9.06011 -30.1257,13.5836 l -2.59458,2.16077 20.72791,20.74922 20.72793,20.74923 0.28411,-28.97146 c 0.15625,-15.93429 0.0653,-29.19029 -0.20224,-29.45778 z"
       id="path2998" />
    <path
       transform="translate(65.149669,397.19282)"
       id="path3678"
       d="m 110.14862,223.1558 c -1.05347,-1.73228 -2.20277,-4.68145 -2.55401,-6.55371 -0.77233,-4.11688 -2.98367,-5.44897 -9.045618,-5.44897 -4.160314,0 -4.74023,0.30483 -6.245486,3.283 -3.472969,6.87129 -7.789377,9.59688 -10.336942,6.52725 -0.59405,-0.71579 -1.21792,-4.23869 -1.386379,-7.82868 l -0.306289,-6.52726 -4.545687,-2.20372 -4.545686,-2.20374 -5.082527,4.98166 c -8.219612,8.05647 -12.337642,5.96987 -9.107567,-4.61481 0.847725,-2.77792 1.546238,-5.58025 1.552253,-6.22741 0.0061,-0.64717 -2.278101,-2.85697 -5.075811,-4.91068 l -5.086744,-3.73401 -3.946795,2.73513 c -4.779649,3.3123 -10.373393,3.93283 -10.931032,1.21261 -0.206667,-1.00814 0.831382,-4.3003 2.306775,-7.31589 2.896552,-5.92034 2.776973,-7.43702 -0.944503,-11.97953 l -2.413254,-2.94567 -6.207809,2.03534 c -7.775199,2.54925 -11.126453,2.09336 -11.126453,-1.51359 0,-1.83258 1.537339,-4.05201 5.167394,-7.46009 l 5.167394,-4.8514 -2.254258,-5.55414 -2.25426,-5.55413 h -6.366051 c -7.9625823,0 -9.5617443,-0.60832 -9.5617443,-3.63728 0,-1.69335 1.2778497,-3.30214 4.2931484,-5.405 2.3612319,-1.64671 5.1300719,-3.58667 6.1529789,-4.31101 1.715685,-1.21491 1.754832,-1.73935 0.505076,-6.7666 -1.329907,-5.34966 -1.451345,-5.48094 -6.621246,-7.15784 -10.5143978,-3.41042 -10.9159811,-6.00991 -1.5758376,-10.20055 3.7371016,-1.67672 6.9588316,-3.21269 7.1593996,-3.41325 0.873547,-0.87355 2.098803,-8.254853 1.626408,-9.79797 C 16.271714,94.880456 13.558335,92.717369 10.527727,91.007 6.1938162,88.561092 5.0175307,87.367564 5.0175307,85.416033 c 0,-3.506346 3.2136497,-4.875231 10.2503683,-4.36624 l 5.927067,0.428726 1.695566,-5.378953 1.695565,-5.378954 -3.065632,-3.272343 c -3.39122,-3.619884 -6.401409,-7.860217 -6.401409,-9.017407 0,-2.232272 4.080727,-2.695652 10.157691,-1.153438 l 6.378795,1.618813 2.391551,-2.915995 c 1.315353,-1.603797 3.058849,-4.161627 3.874437,-5.684068 1.37503,-2.566743 1.299287,-3.045508 -1.041397,-6.58252 -1.388356,-2.097947 -2.816865,-5.277358 -3.174465,-7.065359 -0.996872,-4.984362 1.687233,-5.349257 9.326136,-1.267855 l 6.330231,3.382189 4.054008,-2.80943 4.054009,-2.80943 0.290243,-8.646063 c 0.190231,-5.666782 0.713476,-8.786224 1.518491,-9.05282 0.675535,-0.223715 3.530719,1.746937 6.344851,4.379229 l 5.116603,4.785983 4.766829,-1.475688 4.766827,-1.475689 0.505076,-7.025669 c 0.277792,-3.864119 0.87283,-7.5938806 1.322307,-8.2883605 2.213992,-3.4208063 7.300506,0.1648627 10.194215,7.1862755 l 1.608645,3.903279 4.801632,-0.719981 c 6.695779,-1.004 7.803929,-1.814978 9.256829,-6.7744531 1.61606,-5.516394 3.76311,-8.8984213 5.64909,-8.8984213 1.55059,0 4.81076,5.6795045 5.92674,10.3249054 0.76978,3.204283 2.55873,4.325523 8.46155,5.303328 4.08375,0.676476 4.37449,0.554852 6.06091,-2.535375 2.88342,-5.2836498 6.36698,-9.0522482 8.36757,-9.0522482 2.57428,0 2.866,0.72728 3.6424,9.0810912 0.65859,7.086126 0.78443,7.358425 4.02702,8.713263 4.64263,1.939816 7.09185,1.750158 8.79471,-0.681029 0.80114,-1.143765 2.94953,-3.181025 4.77423,-4.527245 5.00494,-3.692527 6.364,-1.991564 5.47575,6.853278 -0.76976,7.664903 -0.1165,9.052377 6.05915,12.869139 l 3.13688,1.938692 5.81358,-2.93243 c 3.19746,-1.612836 6.4751,-2.678574 7.28365,-2.368308 2.33581,0.896336 1.72839,6.432617 -1.16362,10.605793 l -2.6337,3.800421 2.12844,3.324943 c 4.81642,7.524036 4.16239,7.249553 11.71534,4.916686 4.98472,-1.539622 7.2426,-1.811095 8.67725,-1.043293 3.07982,1.648264 2.30562,4.193058 -3.13151,10.293379 l -5.07076,5.689277 2.24159,4.613892 2.2416,4.613892 h 5.92604 c 6.755,0 9.83383,1.248069 9.83383,3.986355 0,2.230651 -4.43755,6.207798 -9.06512,8.1246 -3.20635,1.32811 -3.25946,1.454701 -2.62316,6.251361 0.9435,7.112462 1.15902,7.397862 6.96972,9.229522 10.88901,3.43246 11.42551,6.81346 1.60216,10.09686 -6.99434,2.33782 -7.75289,3.16773 -8.48526,9.2834 l -0.60485,5.05076 5.26667,3.03046 c 6.25361,3.59834 7.91969,5.79398 6.32377,8.33375 -0.85572,1.36181 -2.7695,1.83595 -8.33357,2.06467 l -7.22275,0.29689 -1.51026,3.61454 c -2.18504,5.22955 -1.98717,5.91706 3.03544,10.54673 3.05124,2.81254 4.54568,5.01793 4.54568,6.70821 0,2.45786 -0.13904,2.50457 -5.80837,1.95121 -3.19461,-0.31182 -6.9448,-0.84363 -8.33376,-1.18183 -2.18574,-0.5322 -2.99671,0.0836 -6.0299,4.57907 l -3.50452,5.19397 2.35242,4.08743 c 2.96735,5.15587 4.15546,9.23817 3.15827,10.85167 -1.13218,1.83189 -6.2267,0.43161 -10.99401,-3.02181 l -4.02305,-2.91429 -5.03116,4.09266 -5.03115,4.09266 1.48912,4.37035 c 0.81902,2.40369 1.34419,5.88124 1.16703,7.72788 -0.48831,5.09007 -3.49032,4.9046 -9.60543,-0.5934 l -5.06476,-4.55366 -4.94779,1.87293 -4.94778,1.87294 -0.50507,7.14455 c -0.35732,5.05446 -1.03912,7.67137 -2.33056,8.94536 -1.75383,1.73011 -1.95207,1.6564 -5.05076,-1.87826 -1.77391,-2.02348 -4.042,-4.86453 -5.04021,-6.31345 -1.44749,-2.10107 -2.63685,-2.63441 -5.87479,-2.63441 -5.87277,0 -7.70601,1.40283 -9.43304,7.21834 -2.57988,8.68742 -5.27227,10.19209 -8.56091,4.78434 z m -3.10568,-63.25911 v -30.04323 l -21.679411,21.66182 -21.679408,21.66182 4.729849,3.3628 c 9.328324,6.6322 26.397634,13.27125 34.33582,13.35482 l 4.29315,0.0452 z m 27.10754,28.00118 c 8.52352,-2.36199 21.4063,-8.64003 26.22014,-12.77761 l 3.32513,-2.85801 -21.76042,-21.70947 -21.76041,-21.70947 v 30.5483 30.54831 h 3.3033 c 1.81681,0 6.61933,-0.91892 10.67226,-2.04205 z M 76.738362,141.95767 98.43902,120.23939 H 67.339867 36.240714 l 0.633454,3.78807 c 0.972082,5.81308 3.447572,14.28973 6.037365,20.67336 2.255534,5.55972 10.438346,18.97513 11.573989,18.97513 0.3037,0 10.317477,-9.77322 22.25284,-21.71828 z M 176.79583,158.044 c 6.57349,-9.55424 13.07962,-26.79868 13.07962,-34.66742 v -3.13719 h -30.04302 -30.04302 l 21.19516,21.2132 c 11.65735,11.66727 21.51831,21.21321 21.91327,21.21321 0.39496,0 2.14905,-2.07981 3.89799,-4.6218 z m -59.28252,-38.88808 c 1.93488,-1.52197 2.66161,-3.02331 2.66161,-5.49856 0,-6.37277 -8.05058,-8.97088 -12.04851,-3.88834 -2.79335,3.55116 -2.64501,5.02364 0.85913,8.52777 3.50413,3.50414 4.97661,3.65248 8.52777,0.85913 z m -40.747691,-33.739512 -21.673401,-21.691 -2.286916,2.148445 c -3.58506,3.36799 -11.059695,18.739701 -13.940519,28.668911 l -2.619672,9.029106 2.175788,1.76777 c 1.959158,1.59176 5.055294,1.76777 31.096955,1.76777 H 98.43902 Z M 189.87545,104.63175 c 0,-4.29058 -2.17664,-12.85144 -5.08395,-19.995534 -2.7351,-6.720921 -10.66947,-19.955215 -11.96378,-19.955215 -0.35639,0 -10.1858,9.545942 -21.84315,21.213204 l -21.19516,21.213205 h 30.04302 30.04302 z M 162.92819,54.291127 c -0.31391,-0.50792 -3.29127,-2.68185 -6.61635,-4.830956 -7.40183,-4.78403 -20.05237,-9.763958 -29.2605,-11.518488 L 120.17492,36.63144 V 67.567465 98.50349 l 21.66202,-21.644435 c 11.9141,-11.904441 21.40517,-22.060007 21.09125,-22.567928 z m -56.02923,2.81373 c 0.0621,-9.444926 -0.30023,-17.825705 -0.80532,-18.623953 -1.93388,-3.056245 -22.083431,2.971803 -34.753797,10.397132 -8.598836,5.039253 -9.363112,3.545493 13.554317,26.491604 l 20.63355,20.659375 0.6291,-10.875782 c 0.34601,-5.98168 0.67998,-18.60345 0.74215,-28.048376 z"
       style="stroke-width:1.01015258" />
  </g>
</svg>
